<?xml version="1.0" encoding="UTF-8"?>
<svg version="1.1" xmlns="http://www.w3.org/2000/svg" width="824" height="328">
<path d="M0 0 C11.90885198 -0.11583618 23.81756999 -0.2046864 35.72687054 -0.25906086 C41.25683677 -0.28515764 46.78641766 -0.32055782 52.31616211 -0.37719727 C57.65243633 -0.43151317 62.98833984 -0.46141992 68.32486916 -0.47438622 C70.36108041 -0.48362678 72.39727132 -0.50167157 74.43332481 -0.52865028 C77.28501646 -0.56493475 80.1351753 -0.56994557 82.98706055 -0.56762695 C83.82935211 -0.58560333 84.67164368 -0.60357971 85.53945923 -0.62210083 C89.87884025 -0.58391018 91.48433321 -0.4167448 94.97932434 2.40779114 C96.71332209 4.63223736 98.16529739 6.71198738 99.5 9.1875 C102.96777085 15.20191506 107.0501957 20.72655781 111.15429688 26.31518555 C114.44231354 30.80167047 117.60121221 35.34643975 120.66503906 39.98901367 C122.26838532 42.40429588 123.93855193 44.76716976 125.625 47.125 C133.12094071 57.86918169 133.12094071 57.86918169 132.73925781 61.43798828 C131.99636668 64.01259182 131.08010315 65.90885268 129.671875 68.1796875 C129.20136719 68.94410156 128.73085937 69.70851563 128.24609375 70.49609375 C127.75238281 71.28113281 127.25867188 72.06617188 126.75 72.875 C126.27175781 73.65230469 125.79351562 74.42960937 125.30078125 75.23046875 C122.37037444 79.95565046 119.28006764 84.51085634 116 89 C112.71261309 88.40974812 112.17664077 88.23766213 110.06640625 85.3984375 C109.38449219 84.27695313 108.70257813 83.15546875 108 82 C107.20463195 80.82007665 106.40088728 79.64576643 105.58984375 78.4765625 C104.94982422 77.54638306 104.94982422 77.54638306 104.296875 76.59741211 C103.62398437 75.62106812 103.62398437 75.62106812 102.9375 74.625 C99.56678494 69.733034 96.20030457 64.83862138 92.86328125 59.92358398 C91.95192988 58.59588996 91.02861415 57.27633225 90.09375 55.96508789 C87.72350758 52.63049023 85.62029343 49.35147354 83.77734375 45.6953125 C81.43897231 41.39406723 79.30856896 37.54767556 75 35 C66.53070093 32.93258311 57.63748705 33.42899738 49 34 C52.13896741 42.39193328 55.53713451 50.59779682 59.25 58.75 C64.62829854 70.69699612 69.69146805 82.76368957 74.6875 94.875 C75.0534729 95.76183472 75.4194458 96.64866943 75.79650879 97.56237793 C76.52384942 99.3249449 77.25117508 101.08751805 77.97848511 102.85009766 C78.32976471 103.7013623 78.68104431 104.55262695 79.04296875 105.4296875 C79.38804474 106.26612793 79.73312073 107.10256836 80.08865356 107.96435547 C82.85336356 114.65974629 85.65150488 121.33973318 88.5 128 C89.03306763 129.25272705 89.03306763 129.25272705 89.5769043 130.53076172 C90.88999591 134.01497505 90.88999591 134.01497505 93 137 C93.49628906 136.17757812 93.99257812 135.35515625 94.50390625 134.5078125 C98.21016293 128.41745523 102.00678625 122.47999434 106.140625 116.66796875 C113.32051326 106.37224876 113.32051326 106.37224876 119.3125 95.375 C120.95529238 92.08941525 122.45019985 90.54980015 125 88 C126.08830539 86.42710092 127.12731855 84.81938599 128.125 83.1875 C130.89775673 78.73107358 133.75487249 74.35143526 136.6875 70 C141.15941917 63.3424065 145.46057397 56.5843593 149.71362305 49.78515625 C152.54171052 45.27182862 155.43901331 40.81605556 158.40625 36.39306641 C160.15455111 33.76793658 161.87253166 31.12459477 163.5859375 28.4765625 C164.20726562 27.5175 164.82859375 26.5584375 165.46875 25.5703125 C166.73371392 23.61583956 167.99675413 21.66012014 169.2578125 19.703125 C170.51829235 17.76031928 171.80002462 15.83113826 173.10253906 13.91625977 C175.05816879 11.02210973 175.05816879 11.02210973 176.60839844 7.84741211 C180.65385518 0.6847844 180.65385518 0.6847844 184.87908936 -0.54846191 C190.41366757 -1.365375 195.93748864 -1.00222672 201.5 -0.6875 C203.19775804 -0.63225806 204.89568882 -0.58207922 206.59375 -0.53710938 C210.73346485 -0.41650786 214.86481904 -0.22715538 219 0 C219.20817771 3.61422871 218.99889206 5.62114927 216.90234375 8.58203125 C216.43812012 9.25451904 215.97389648 9.92700684 215.49560547 10.61987305 C214.98143066 11.34343994 214.46725586 12.06700684 213.9375 12.8125 C212.8312527 14.41694374 211.72856835 16.02384822 210.62890625 17.6328125 C210.03996582 18.49422852 209.45102539 19.35564453 208.84423828 20.24316406 C205.56393937 25.14667682 202.4782447 30.17081083 199.375 35.1875 C194.99349368 42.24689863 190.5691292 49.25501784 185.91308594 56.13623047 C181.87596556 62.12610631 178.00620914 68.22084294 174.125 74.3125 C166.3969053 86.42945636 158.61538149 98.51601908 150.3125 110.25 C143.75562067 119.52830254 137.82491158 129.23675682 131.89453125 138.921875 C125.28206433 149.6654295 118.36879676 160.22669209 111.53125 170.828125 C111.12825684 171.45356201 110.72526367 172.07899902 110.31005859 172.72338867 C109.54281731 173.91408266 108.77495397 175.10437615 108.00634766 176.29418945 C106.41217457 178.76908265 104.882114 181.22107453 103.49609375 183.8203125 C102 186 102 186 100.08984375 186.92578125 C94.33157663 187.96038823 88.84344068 188.26121341 83 188 C81.72125 188 80.4425 188 79.125 188 C76 187 76 187 74.15625 183.78125 C71.35379789 177.77923178 68.88113683 171.62992905 66.375 165.5 C65.84002972 164.19801746 65.30470507 162.89618048 64.76904297 161.59448242 C63.95439889 159.61479741 63.13993584 157.63504093 62.3265686 155.65483093 C59.94798842 149.86485052 57.53963052 144.08753317 55.125 138.3125 C50.74453668 127.82088723 46.4158846 117.30822541 42.09259033 106.79296875 C37.8508573 96.47674359 33.58004185 86.17330917 29.27441406 75.88354492 C27.04572456 70.54673961 24.8689228 65.19373517 22.75 59.8125 C20.98858082 55.36207956 19.10789422 51.01450194 17.0625 46.6875 C14.26131751 40.74048692 11.8894012 34.6777878 9.54638672 28.54101562 C7.5576856 23.3577343 5.41289456 18.28466731 3.04296875 13.26171875 C2.52669922 12.14216797 2.52669922 12.14216797 2 11 C1.62488281 10.20207031 1.24976563 9.40414062 0.86328125 8.58203125 C-0.13405519 5.5990476 -0.05942446 3.12637217 0 0 Z " fill="#04B471" transform="translate(62,67)"/>
<path d="M0 0 C8.25 0 16.5 0 25 0 C29.90822432 9.32562621 33.83099889 18.83566978 37.67480469 28.63427734 C40.16144592 34.94983298 42.68053162 41.25246157 45.19897461 47.5553894 C46.10127843 49.81557958 47.00098291 52.07679086 47.90039062 54.33813477 C51.11467432 62.40057156 54.42563351 70.40274661 57.92919922 78.34423828 C59 81 59 81 59 83 C59.66 83 60.32 83 61 83 C61.17237686 82.38675369 61.34475372 81.77350739 61.52235413 81.14167786 C63.26301584 75.12504516 65.3512545 69.3938003 67.80859375 63.63671875 C68.17183746 62.77382736 68.53508118 61.91093597 68.90933228 61.02189636 C70.08072103 58.24176779 71.25903555 55.46463564 72.4375 52.6875 C73.65510239 49.80338353 74.87101611 46.91855894 76.08683777 44.03369141 C76.89760921 42.11026155 77.70897847 40.18708357 78.52095032 38.26416016 C80.97883348 32.44007228 83.41435942 26.60744737 85.8203125 20.76171875 C86.24459282 19.73122658 86.24459282 19.73122658 86.67744446 18.67991638 C87.97441842 15.52714019 89.26782864 12.37295521 90.55834961 9.2175293 C91.0044458 8.1325415 91.45054199 7.04755371 91.91015625 5.9296875 C92.29308838 4.99366699 92.67602051 4.05764648 93.07055664 3.09326172 C94 1 94 1 95 0 C96.78071246 -0.08726223 98.5648314 -0.10699041 100.34765625 -0.09765625 C101.42724609 -0.09443359 102.50683594 -0.09121094 103.61914062 -0.08789062 C105.32360352 -0.07532227 105.32360352 -0.07532227 107.0625 -0.0625 C108.77276367 -0.05573242 108.77276367 -0.05573242 110.51757812 -0.04882812 C113.34510351 -0.03699747 116.1725264 -0.0205141 119 0 C120 2 120 2 119.29418945 4.15356445 C118.90448975 5.047771 118.51479004 5.94197754 118.11328125 6.86328125 C117.67540283 7.88091553 117.23752441 8.8985498 116.78637695 9.94702148 C116.29999756 11.05762939 115.81361816 12.1682373 115.3125 13.3125 C114.29047697 15.68438356 113.26968886 18.05679953 112.25 20.4296875 C111.98395462 21.04647873 111.71790924 21.66326996 111.44380188 22.29875183 C108.49325375 29.14807873 105.65144811 36.0413385 102.8125 42.9375 C99.95688565 49.87199395 97.08870972 56.79992307 94.16877747 63.70755005 C90.99172899 71.22382356 87.85983116 78.75604502 84.7890625 86.31640625 C84.44503891 87.16214706 84.10101532 88.00788788 83.74656677 88.8792572 C82.3439386 92.32841678 80.94197627 95.77781498 79.54736328 99.23022461 C78.50749263 101.80249892 77.46134712 104.37214329 76.4140625 106.94140625 C76.09950104 107.72455704 75.78493958 108.50770782 75.46084595 109.31459045 C73.227336 114.772664 73.227336 114.772664 71 117 C67.20861522 117.50710731 63.38395252 117.41671869 59.5625 117.4375 C57.96825195 117.48680664 57.96825195 117.48680664 56.34179688 117.53710938 C55.32279297 117.54419922 54.30378906 117.55128906 53.25390625 117.55859375 C51.85120483 117.57877563 51.85120483 117.57877563 50.42016602 117.59936523 C48 117 48 117 46.40087891 114.99780273 C44.62165578 111.19036447 42.93955882 107.35951732 41.33203125 103.4765625 C40.98017761 102.63511688 40.62832397 101.79367126 40.26580811 100.92672729 C39.11074415 98.16111809 37.96147629 95.39314328 36.8125 92.625 C36.0059802 90.68936886 35.1992555 88.75382308 34.39233398 86.81835938 C27.43944566 70.1239787 20.55756704 53.40038436 13.72297668 36.65725708 C11.9545823 32.32721586 10.17716971 28.00107051 8.38890076 23.67919922 C7.58432711 21.73408717 6.78187976 19.78811331 5.98022461 17.84179688 C5.02278024 15.51853751 4.06160336 13.19681134 3.09594727 10.87695312 C2.47610962 9.3677832 2.47610962 9.3677832 1.84375 7.828125 C1.48474609 6.9609082 1.12574219 6.09369141 0.75585938 5.20019531 C0 3 0 3 0 0 Z " fill="#FDFDFD" transform="translate(300,107)"/>
<path d="M0 0 C7.76042695 7.39594506 13.61076976 18.08583851 14.08618164 28.96362305 C14.1301516 31.36086527 14.13251087 33.75474879 14.12109375 36.15234375 C14.12496094 36.97992188 14.12882812 37.8075 14.1328125 38.66015625 C14.1227871 44.7756504 14.1227871 44.7756504 12.99609375 45.90234375 C11.09365613 45.99625671 9.18770916 46.01978033 7.28295898 46.01586914 C6.06176865 46.01579361 4.84057831 46.01571808 3.5823822 46.01564026 C2.23981689 46.01053286 0.897252 46.00531686 -0.4453125 46 C-1.81151783 45.99813574 -3.17772382 45.99671188 -4.54393005 45.99571228 C-8.1459232 45.99188769 -11.74787625 45.98205792 -15.34985352 45.9710083 C-19.0229437 45.96079291 -22.69604034 45.95621439 -26.36914062 45.95117188 C-33.58074748 45.94043559 -40.79232125 45.92335989 -48.00390625 45.90234375 C-47.06516018 47.85083349 -46.11829422 49.79541277 -45.16796875 51.73828125 C-44.64154785 52.82157715 -44.11512695 53.90487305 -43.57275391 55.02099609 C-41.51396807 58.80216485 -40.00938678 60.27048131 -36.00390625 61.90234375 C-28.50098209 63.94661874 -21.38315998 64.72844092 -14.00390625 61.90234375 C-11.5476814 60.44021305 -9.27472389 58.88980089 -7.01171875 57.14453125 C-5.00390625 55.90234375 -5.00390625 55.90234375 -1.00390625 55.90234375 C0.8125 57.51171875 0.8125 57.51171875 2.55859375 59.65234375 C3.13738281 60.3484375 3.71617187 61.04453125 4.3125 61.76171875 C5.14587891 62.82132813 5.14587891 62.82132813 5.99609375 63.90234375 C6.58261719 64.5675 7.16914063 65.23265625 7.7734375 65.91796875 C8.99609375 67.90234375 8.99609375 67.90234375 8.90625 69.93359375 C5.97235578 76.27987138 -1.70170311 80.49516827 -8.00390625 82.90234375 C-21.40675697 87.62165738 -36.53828958 85.39818599 -49.19140625 79.71484375 C-58.71447367 74.64392354 -65.22156051 66.07839373 -69.08984375 56.1015625 C-73.51878528 40.60026714 -72.72100625 24.25405461 -65.00390625 9.90234375 C-57.93044943 -0.50636265 -48.40189934 -7.0296948 -36.00390625 -9.53515625 C-22.7487741 -11.21148978 -10.34462182 -8.72193605 0 0 Z M-44.00390625 17.90234375 C-46.54507756 22.08486178 -48.00390625 24.93009115 -48.00390625 29.90234375 C-34.80390625 29.90234375 -21.60390625 29.90234375 -8.00390625 29.90234375 C-11.03132084 18.92854345 -11.03132084 18.92854345 -18.9609375 11.80859375 C-28.33514392 7.93702858 -37.59593614 9.89238111 -44.00390625 17.90234375 Z " fill="#FDFDFD" transform="translate(486.00390625,140.09765625)"/>
<path d="M0 0 C0.60585938 0.50144531 1.21171875 1.00289062 1.8359375 1.51953125 C10.56788725 9.35540755 14.58615921 20.46057318 15.21484375 31.9140625 C15.68617177 47.3391852 12.70037279 60.53177643 2.00390625 72.15234375 C-1.61933222 75.4930685 -5.60703819 77.80676353 -10 80 C-10.82113281 80.41507812 -11.64226562 80.83015625 -12.48828125 81.2578125 C-23.71595308 86.13051985 -36.77480921 85.29791693 -48.1328125 81.26171875 C-52.52847805 79.32738636 -56.2709043 77.01704396 -60 74 C-60.92039062 73.28263672 -60.92039062 73.28263672 -61.859375 72.55078125 C-71.41793551 64.15531992 -75.32630278 51.34442994 -76.2109375 39.07421875 C-76.65805551 25.81544996 -72.79582744 13.49498616 -64.3125 3.25 C-56.74920483 -4.79666365 -46.38929384 -9.90018066 -35.3515625 -10.93359375 C-21.8031521 -11.31619006 -10.32524497 -9.07303441 0 0 Z M-47.3125 18.1875 C-52.3873837 26.64563951 -53.46565689 36.38709568 -51.34375 45.9609375 C-49.30936905 52.36222239 -46.44961311 56.99962466 -41 61 C-35.48753215 63.81748357 -28.73280925 64.04202096 -22.7890625 62.3828125 C-17.35872582 60.03174719 -13.77531811 56.18825392 -11 51 C-7.719292 41.49493504 -7.27977396 30.41367527 -11.58984375 21.16015625 C-14.63977574 16.48809977 -18.68964835 12.77011722 -24 11 C-34.12682174 10.03026331 -39.9776614 11.24913916 -47.3125 18.1875 Z " fill="#FDFDFD" transform="translate(741,141)"/>
<path d="M0 0 C3.87397689 -0.23331804 7.74614424 -0.3747313 11.625 -0.5 C12.71941406 -0.56703125 13.81382812 -0.6340625 14.94140625 -0.703125 C22.87896623 -0.8955507 22.87896623 -0.8955507 25.92993164 1.54174805 C27.50480957 3.61619355 28.75593239 5.71343147 30 8 C30.87871465 9.32610116 31.76780636 10.64539433 32.66796875 11.95703125 C33.94254917 13.89934255 35.20952091 15.84641687 36.47460938 17.79492188 C38.45563647 20.81113575 40.38937907 23.5123312 43 26 C44.05052477 24.54476486 45.09999093 23.08875639 46.14477539 21.62939453 C47.05828092 20.36256592 47.98222525 19.1032078 48.91577148 17.85107422 C51.20651348 14.73522525 53.01299124 11.97012987 54.56640625 8.3984375 C56.36323889 4.46698646 57.43523379 2.51471497 61 0 C69.21332585 -1.49280901 77.73257442 -0.72619279 86 0 C85.14657334 4.02168587 83.23412272 6.74650416 80.8125 10 C79.90893416 11.23738978 79.00667029 12.47573097 78.10546875 13.71484375 C77.61224121 14.39144043 77.11901367 15.06803711 76.61083984 15.76513672 C72.94727887 20.84792501 69.39578761 26.01106838 65.82348633 31.15820312 C62.99850298 35.21163167 60.15894664 39.19525885 57 43 C58.59477265 47.81213375 61.30683259 51.50362826 64.25 55.5625 C65.32738553 57.06730568 66.4041826 58.57253281 67.48046875 60.078125 C68.04942871 60.87154297 68.61838867 61.66496094 69.20458984 62.48242188 C72.96706844 67.75828253 76.65932154 73.08370068 80.36621094 78.39868164 C80.92727539 79.20168701 81.48833984 80.00469238 82.06640625 80.83203125 C82.56084229 81.54077393 83.05527832 82.2495166 83.56469727 82.97973633 C84.99554599 85.05230947 84.99554599 85.05230947 86.74584961 87.07299805 C87.15971924 87.70890869 87.57358887 88.34481934 88 89 C87.505 90.485 87.505 90.485 87 92 C83.14714438 92.26303192 79.29660407 92.42172203 75.4375 92.5625 C74.35146484 92.63791016 73.26542969 92.71332031 72.14648438 92.79101562 C64.22372307 93.0077477 64.22372307 93.0077477 60.82543945 90.20922852 C58.99859847 87.89246984 57.48223564 85.54911814 56 83 C55.16663152 81.75391275 54.32976129 80.51015521 53.48828125 79.26953125 C52.75844899 78.12007762 52.0330697 76.96778269 51.3125 75.8125 C48.59320846 71.50494969 45.84193968 67.22762584 43 63 C39.00072371 67.8011362 35.49790966 72.93447488 31.9375 78.0625 C30.69722427 79.84547635 29.45636016 81.62804358 28.21484375 83.41015625 C27.66948975 84.19527588 27.12413574 84.98039551 26.56225586 85.78930664 C26.04671143 86.51883545 25.53116699 87.24836426 25 88 C24.32952637 89.11991333 24.32952637 89.11991333 23.64550781 90.26245117 C22 92 22 92 19.45629883 92.45410156 C18.46654053 92.4331543 17.47678223 92.41220703 16.45703125 92.390625 C15.38388672 92.37773437 14.31074219 92.36484375 13.20507812 92.3515625 C12.08552734 92.31804687 10.96597656 92.28453125 9.8125 92.25 C8.68134766 92.23195313 7.55019531 92.21390625 6.38476562 92.1953125 C3.58899624 92.14812652 0.79492028 92.08230595 -2 92 C-2 87.89232494 -1.92865414 87.40776073 0.3515625 84.375 C0.8667041 83.67777832 1.3818457 82.98055664 1.91259766 82.26220703 C2.47769043 81.51567871 3.0427832 80.76915039 3.625 80 C4.81402997 78.39436103 6.00147047 76.78754406 7.1875 75.1796875 C7.81011719 74.33889648 8.43273437 73.49810547 9.07421875 72.63183594 C12.33107015 68.18091579 15.47610307 63.65263011 18.625 59.125 C19.78333874 57.46057868 20.94215997 55.79649298 22.1015625 54.1328125 C22.58963379 53.43043457 23.07770508 52.72805664 23.58056641 52.00439453 C24.57785141 50.5961197 25.61783063 49.21758737 26.68725586 47.86328125 C28.20601426 46.11402374 28.20601426 46.11402374 27.90234375 44.0546875 C26.75745916 41.44772086 25.28010942 39.39901811 23.5625 37.125 C19.94193671 32.26531345 16.38324279 27.37194065 12.87792969 22.42895508 C10.65207117 19.29513536 8.40173882 16.18426855 6.10546875 13.1015625 C5.63802246 12.46710205 5.17057617 11.8326416 4.68896484 11.17895508 C3.78742548 9.95648817 2.87785155 8.73989655 1.95947266 7.5300293 C0.73828125 5.86328125 0.73828125 5.86328125 -1 3 C-0.67 2.01 -0.34 1.02 0 0 Z " fill="#FDFDFD" transform="translate(506,132)"/>
<path d="M0 0 C0.98484375 -0.00128906 1.9696875 -0.00257812 2.984375 -0.00390625 C4.02078125 -0.00003906 5.0571875 0.00382812 6.125 0.0078125 C7.67960938 0.00201172 7.67960938 0.00201172 9.265625 -0.00390625 C10.25046875 -0.00261719 11.2353125 -0.00132813 12.25 0 C13.16007813 0.00112793 14.07015625 0.00225586 15.0078125 0.00341797 C17.125 0.1328125 17.125 0.1328125 18.125 1.1328125 C18.21185603 2.69453995 18.23202219 4.26010594 18.22265625 5.82421875 C18.21943359 6.76845703 18.21621094 7.71269531 18.21289062 8.68554688 C18.20032227 10.17538086 18.20032227 10.17538086 18.1875 11.6953125 C18.18298828 12.69240234 18.17847656 13.68949219 18.17382812 14.71679688 C18.16200023 17.18882737 18.14406415 19.66082722 18.125 22.1328125 C24.725 22.1328125 31.325 22.1328125 38.125 22.1328125 C40.26207298 26.40695847 40.39460652 28.56205074 40.375 33.2578125 C40.38273438 35.11792969 40.38273438 35.11792969 40.390625 37.015625 C40.125 40.1328125 40.125 40.1328125 38.125 42.1328125 C36.06201172 42.35986328 36.06201172 42.35986328 33.5546875 42.328125 C32.65878906 42.32167969 31.76289062 42.31523437 30.83984375 42.30859375 C29.90269531 42.29183594 28.96554687 42.27507812 28 42.2578125 C27.05511719 42.24878906 26.11023438 42.23976562 25.13671875 42.23046875 C22.79922708 42.20685772 20.46223877 42.17392766 18.125 42.1328125 C18.21743999 48.45021676 18.32476782 54.76724314 18.44238281 61.08422852 C18.48063385 63.23260784 18.51549347 65.38105037 18.546875 67.52954102 C18.59260937 70.62018396 18.65059056 73.71039331 18.7109375 76.80078125 C18.72248871 77.75929489 18.73403992 78.71780853 18.74594116 79.70536804 C18.83881948 86.16337326 18.83881948 86.16337326 21.125 92.1328125 C25.57583345 94.35822922 31.64751213 93.60560862 36.25 92.1328125 C37.178125 91.6378125 37.178125 91.6378125 38.125 91.1328125 C39.14302071 93.45971697 40.14163321 95.79125303 41.125 98.1328125 C41.42277344 98.82761719 41.72054687 99.52242188 42.02734375 100.23828125 C42.30707031 100.92535156 42.58679688 101.61242187 42.875 102.3203125 C43.13796875 102.95324219 43.4009375 103.58617187 43.671875 104.23828125 C44.24296867 106.62604359 44.09498119 107.87725815 43.125 110.1328125 C41.41796875 111.36328125 41.41796875 111.36328125 39.3125 112.3203125 C38.62542969 112.64386719 37.93835938 112.96742188 37.23046875 113.30078125 C28.95816104 116.56980081 18.81492275 116.21275288 10.4765625 113.29296875 C3.03396112 109.62112056 -1.47261531 104.38028778 -4.21875 96.625 C-5.90864951 90.20740543 -6.00754145 84.07594208 -5.97265625 77.484375 C-5.9712413 76.47184662 -5.96982635 75.45931824 -5.96836853 74.41610718 C-5.96279143 71.19664499 -5.95024312 67.97725351 -5.9375 64.7578125 C-5.93248204 62.56901142 -5.92791965 60.38020925 -5.92382812 58.19140625 C-5.9128295 52.83851773 -5.8961142 47.48567017 -5.875 42.1328125 C-7.15697266 42.15021484 -7.15697266 42.15021484 -8.46484375 42.16796875 C-9.56957031 42.17699219 -10.67429687 42.18601563 -11.8125 42.1953125 C-12.91464844 42.20691406 -14.01679687 42.21851563 -15.15234375 42.23046875 C-17.875 42.1328125 -17.875 42.1328125 -18.875 41.1328125 C-18.9733721 39.80237625 -19.00578592 38.46687906 -19.0078125 37.1328125 C-19.00910156 36.3284375 -19.01039063 35.5240625 -19.01171875 34.6953125 C-19.00785156 33.8496875 -19.00398437 33.0040625 -19 32.1328125 C-19.00386719 31.2871875 -19.00773438 30.4415625 -19.01171875 29.5703125 C-19.01042969 28.7659375 -19.00914062 27.9615625 -19.0078125 27.1328125 C-19.00668457 26.3903125 -19.00555664 25.6478125 -19.00439453 24.8828125 C-18.875 23.1328125 -18.875 23.1328125 -17.875 22.1328125 C-15.85535801 22.06037197 -13.83332876 22.04904062 -11.8125 22.0703125 C-10.15541016 22.08384766 -10.15541016 22.08384766 -8.46484375 22.09765625 C-7.61019531 22.10925781 -6.75554688 22.12085938 -5.875 22.1328125 C-5.88023682 21.50189697 -5.88547363 20.87098145 -5.89086914 20.22094727 C-5.91157826 17.37907903 -5.92464066 14.53722662 -5.9375 11.6953125 C-5.94587891 10.70208984 -5.95425781 9.70886719 -5.96289062 8.68554688 C-5.96611328 7.74130859 -5.96933594 6.79707031 -5.97265625 5.82421875 C-5.97789307 4.94967041 -5.98312988 4.07512207 -5.98852539 3.17407227 C-5.76721954 -0.80514965 -3.43060379 0.00425181 0 0 Z " fill="#FEFEFE" transform="translate(615.875,109.8671875)"/>
<path d="M0 0 C1.703125 0.10546875 1.703125 0.10546875 4 1 C5.7408895 3.0754482 7.24558129 5.076885 8.75 7.3125 C9.18755615 7.94406006 9.6251123 8.57562012 10.07592773 9.22631836 C11.3974299 11.14209984 12.70169608 13.06843863 14 15 C15.04607422 16.55460937 15.04607422 16.55460937 16.11328125 18.140625 C17.42538939 20.10747247 18.7325968 22.07759713 20.03515625 24.05078125 C21.98574224 26.97859919 23.98484585 29.86631061 26 32.75 C31.11329949 40.10535283 36.07539922 47.56028025 41.02709961 55.02514648 C44.08286475 59.63180393 47.14376295 64.2312047 50.2890625 68.77734375 C50.76480713 69.47037598 51.24055176 70.1634082 51.73071289 70.87744141 C52.59389956 72.13163344 53.46503076 73.38040924 54.34545898 74.62255859 C55.47265625 76.26953125 55.47265625 76.26953125 57 79 C56.505 80.485 56.505 80.485 56 82 C48.22342391 83.03631512 40.52799369 83.25146865 32.6875 83.3125 C31.42615234 83.34150391 30.16480469 83.37050781 28.86523438 83.40039062 C27.65544922 83.40876953 26.44566406 83.41714844 25.19921875 83.42578125 C23.55699341 83.44765503 23.55699341 83.44765503 21.8815918 83.4699707 C18.30280209 82.88629111 17.24634251 81.78264701 15 79 C13.40635328 76.74932349 11.87446003 74.49860805 10.375 72.1875 C9.48575757 70.83588454 8.59643237 69.48432354 7.70703125 68.1328125 C7.03148193 67.10075684 7.03148193 67.10075684 6.34228516 66.04785156 C4.26351925 62.87639132 2.16369842 59.7191217 0.0625 56.5625 C-0.3404126 55.95301514 -0.7433252 55.34353027 -1.15844727 54.71557617 C-3.39390535 51.34808457 -5.68069681 48.02888516 -8.0390625 44.74609375 C-8.5431665 44.03702881 -9.04727051 43.32796387 -9.56665039 42.59741211 C-10.53657633 41.23742619 -11.51696573 39.88481888 -12.50952148 38.54125977 C-15.4331286 34.42281961 -16.97564158 31.21270202 -17 26 C-15.91796875 23.4375 -15.91796875 23.4375 -14.1875 21 C-13.55070313 20.07574219 -12.91390625 19.15148437 -12.2578125 18.19921875 C-11.51273438 17.14347656 -10.76765625 16.08773437 -10 15 C-8.63384128 12.96494 -7.28108979 10.92135202 -5.92895508 8.87695312 C-3.96493292 5.90969006 -1.98210307 2.955208 0 0 Z " fill="#05B471" transform="translate(225,172)"/>
<path d="M0 0 C1.69775804 0.05524194 3.39568882 0.10542078 5.09375 0.15039062 C9.23346485 0.27099214 13.36481904 0.46034462 17.5 0.6875 C17.70817771 4.30172871 17.49889206 6.30864927 15.40234375 9.26953125 C14.93812012 9.94201904 14.47389648 10.61450684 13.99560547 11.30737305 C13.48143066 12.03093994 12.96725586 12.75450684 12.4375 13.5 C11.3312527 15.10444374 10.22856835 16.71134822 9.12890625 18.3203125 C8.53996582 19.18172852 7.95102539 20.04314453 7.34423828 20.93066406 C4.06392736 25.83419476 0.97867102 30.85855563 -2.125 35.875 C-6.46220143 42.85086817 -10.80266151 49.82151132 -15.3125 56.6875 C-15.71484863 57.31035889 -16.11719727 57.93321777 -16.53173828 58.57495117 C-17.46724847 59.98314235 -18.47599844 61.34228532 -19.5 62.6875 C-20.16 62.6875 -20.82 62.6875 -21.5 62.6875 C-21.75 60.4375 -21.75 60.4375 -21.5 57.6875 C-20.20896357 56.3131709 -18.8743291 54.97853643 -17.5 53.6875 C-16.7127322 51.5493034 -16.7127322 51.5493034 -16.5 49.6875 C-15.84 49.6875 -15.18 49.6875 -14.5 49.6875 C-14.39042969 49.12160156 -14.28085938 48.55570313 -14.16796875 47.97265625 C-14.00941406 47.23917969 -13.85085937 46.50570312 -13.6875 45.75 C-13.46126953 44.65365234 -13.46126953 44.65365234 -13.23046875 43.53515625 C-12.98941406 42.92542969 -12.74835938 42.31570312 -12.5 41.6875 C-11.51 41.3575 -10.52 41.0275 -9.5 40.6875 C-9.17 39.5325 -8.84 38.3775 -8.5 37.1875 C-8.17 36.0325 -7.84 34.8775 -7.5 33.6875 C-6.51 33.3575 -5.52 33.0275 -4.5 32.6875 C-3.3460192 31.08825493 -3.3460192 31.08825493 -2.4375 29.1875 C-0.70357634 25.78928817 -0.70357634 25.78928817 1.5 24.6875 C2.59166575 22.14175314 3.48545198 19.55082715 4.40234375 16.9375 C4.76457031 16.195 5.12679687 15.4525 5.5 14.6875 C6.49 14.3575 7.48 14.0275 8.5 13.6875 C9.12092718 11.87453385 9.12092718 11.87453385 9.5 9.6875 C10.1469365 8.0130761 10.80959426 6.34447379 11.5 4.6875 C10.75492187 4.85121094 10.00984375 5.01492187 9.2421875 5.18359375 C4.02737426 5.8857972 -1.12020731 5.79206423 -6.375 5.75 C-7.44492187 5.74548828 -8.51484375 5.74097656 -9.6171875 5.73632812 C-12.24484986 5.72459749 -14.87239538 5.70818228 -17.5 5.6875 C-17.68780029 6.6465625 -17.68780029 6.6465625 -17.87939453 7.625 C-18.08419434 8.305625 -18.28899414 8.98625 -18.5 9.6875 C-19.82354849 10.37338747 -21.15767368 11.03913106 -22.5 11.6875 C-23.75457711 13.54894554 -23.75457711 13.54894554 -24.625 15.6875 C-25.7670302 18.25470838 -26.48199302 19.66949302 -28.5 21.6875 C-29.20710678 23.33741582 -29.87943989 25.00312256 -30.5 26.6875 C-31.16 26.6875 -31.82 26.6875 -32.5 26.6875 C-32.995 28.1725 -32.995 28.1725 -33.5 29.6875 C-34.16 29.6875 -34.82 29.6875 -35.5 29.6875 C-35.438125 30.47125 -35.37625 31.255 -35.3125 32.0625 C-35.4053125 33.361875 -35.4053125 33.361875 -35.5 34.6875 C-36.49 35.3475 -37.48 36.0075 -38.5 36.6875 C-39.7188121 40.24422179 -39.7188121 40.24422179 -40.5 43.6875 C-41.16 43.6875 -41.82 43.6875 -42.5 43.6875 C-42.78875 44.285625 -43.0775 44.88375 -43.375 45.5 C-44.5 47.6875 -44.5 47.6875 -46.5 50.6875 C-47.16 50.6875 -47.82 50.6875 -48.5 50.6875 C-48.64115234 51.78578125 -48.64115234 51.78578125 -48.78515625 52.90625 C-49.60662225 56.1023363 -50.81721843 57.68371636 -52.9375 60.1875 C-54.94236135 62.56487212 -56.39305983 64.4144785 -57.53125 67.3203125 C-58.5 69.6875 -58.5 69.6875 -61.5625 72.0625 C-65.17003259 75.28625253 -65.05920458 77.0150686 -65.5 81.6875 C-66.49 82.3475 -67.48 83.0075 -68.5 83.6875 C-68.83 84.533125 -69.16 85.37875 -69.5 86.25 C-69.83 87.054375 -70.16 87.85875 -70.5 88.6875 C-71.49 89.0175 -72.48 89.3475 -73.5 89.6875 C-73.355625 90.368125 -73.21125 91.04875 -73.0625 91.75 C-73.67389425 95.85507567 -75.87940967 97.41096214 -78.87109375 100.13671875 C-80.60228163 101.60920117 -80.60228163 101.60920117 -81.5 103.6875 C-82.16 103.6875 -82.82 103.6875 -83.5 103.6875 C-83.83 105.3375 -84.16 106.9875 -84.5 108.6875 C-85.985 109.1825 -85.985 109.1825 -87.5 109.6875 C-87.89044206 111.00524196 -88.20955086 112.34417272 -88.5 113.6875 C-89.46476382 115.70473344 -90.46838392 117.70362292 -91.5 119.6875 C-92.1496875 121.1415625 -92.1496875 121.1415625 -92.8125 122.625 C-94.57085712 125.81609255 -96.59414412 128.13418689 -99.02734375 130.8125 C-100.60009602 132.81494321 -101.50322553 134.7269615 -102.5 137.0625 C-103.421875 139.0859375 -103.421875 139.0859375 -104.5 140.6875 C-107.75 141.6875 -107.75 141.6875 -110.5 141.6875 C-110.5 141.0275 -110.5 140.3675 -110.5 139.6875 C-111.49 139.3575 -112.48 139.0275 -113.5 138.6875 C-113.5 136.7075 -113.5 134.7275 -113.5 132.6875 C-111.025 135.1625 -111.025 135.1625 -108.5 137.6875 C-108.00371094 136.86507812 -107.50742188 136.04265625 -106.99609375 135.1953125 C-103.28983707 129.10495523 -99.49321375 123.16749434 -95.359375 117.35546875 C-88.17948674 107.05974876 -88.17948674 107.05974876 -82.1875 96.0625 C-80.54470762 92.77691525 -79.04980015 91.23730015 -76.5 88.6875 C-75.41169461 87.11460092 -74.37268145 85.50688599 -73.375 83.875 C-70.60224327 79.41857358 -67.74512751 75.03893526 -64.8125 70.6875 C-60.34058083 64.0299065 -56.03942603 57.2718593 -51.78637695 50.47265625 C-48.95828948 45.95932862 -46.06098669 41.50355556 -43.09375 37.08056641 C-41.34544889 34.45543658 -39.62746834 31.81209477 -37.9140625 29.1640625 C-37.29273438 28.205 -36.67140625 27.2459375 -36.03125 26.2578125 C-34.76628608 24.30333956 -33.50324587 22.34762014 -32.2421875 20.390625 C-30.98170765 18.44781928 -29.69997538 16.51863826 -28.39746094 14.60375977 C-26.44183121 11.70960973 -26.44183121 11.70960973 -24.89160156 8.53491211 C-18.93844024 -2.00537566 -10.83375236 -0.61297337 0 0 Z " fill="#1BAC73" transform="translate(263.5,66.3125)"/>
<path d="M0 0 C2.59913705 0.3671058 3.74949586 0.72298453 5.53637695 2.69897461 C6.01550537 3.42608643 6.49463379 4.15319824 6.98828125 4.90234375 C7.52622314 5.70542969 8.06416504 6.50851563 8.6184082 7.3359375 C9.1774585 8.19445312 9.73650879 9.05296875 10.3125 9.9375 C11.47890207 11.68637441 12.64556605 13.43507418 13.8125 15.18359375 C14.36679688 16.0226123 14.92109375 16.86163086 15.4921875 17.72607422 C17.2282703 20.3442535 19.00680202 22.9293883 20.8125 25.5 C21.32683594 26.23863281 21.84117187 26.97726563 22.37109375 27.73828125 C23.60171451 29.44698489 24.87188418 31.12730052 26.16015625 32.79296875 C27.25650391 34.22576172 27.25650391 34.22576172 28.375 35.6875 C29.04273438 36.53699219 29.71046875 37.38648438 30.3984375 38.26171875 C32.42891344 41.73333737 33.00862486 43.96356565 33 48 C31.85921198 50.85933474 30.24078303 53.28379651 28.5 55.8125 C28.04383301 56.50666016 27.58766602 57.20082031 27.11767578 57.91601562 C25.76635272 59.95936408 24.38885599 61.98202592 23 64 C22.26523438 65.07636719 21.53046875 66.15273437 20.7734375 67.26171875 C19.20434315 69.52495978 17.61783436 71.77145995 16 74 C14.25 73.875 14.25 73.875 12 73 C10.06640625 70.3984375 10.06640625 70.3984375 8 67 C7.20463195 65.82007665 6.40088728 64.64576643 5.58984375 63.4765625 C5.16316406 62.85644287 4.73648438 62.23632324 4.296875 61.59741211 C3.62398437 60.62106812 3.62398437 60.62106812 2.9375 59.625 C-0.43321506 54.733034 -3.79969543 49.83862138 -7.13671875 44.92358398 C-8.04807012 43.59588996 -8.97138585 42.27633225 -9.90625 40.96508789 C-12.27649242 37.63049023 -14.37970657 34.35147354 -16.22265625 30.6953125 C-18.56102769 26.39406723 -20.69143104 22.54767556 -25 20 C-33.46929907 17.93258311 -42.36251295 18.42899738 -51 19 C-47.77007583 27.64590736 -44.24957586 36.09639447 -40.4375 44.5 C-36.20704408 53.94035726 -32.05351324 63.40881607 -28.05740356 72.95092773 C-27.52253769 74.22553271 -26.98454985 75.49883246 -26.44332886 76.77075195 C-25.68770005 78.54914425 -24.94513719 80.33307093 -24.203125 82.1171875 C-23.56358887 83.64255127 -23.56358887 83.64255127 -22.91113281 85.19873047 C-22.00369521 87.98863912 -21.81211484 90.09044509 -22 93 C-23.87109375 92.36328125 -23.87109375 92.36328125 -26 91 C-27.16015625 88.35546875 -27.16015625 88.35546875 -28.0625 85.1875 C-29.27045684 81.01408687 -30.65166157 77.65859734 -33 74 C-35.08544597 69.71324995 -35.52238061 65.69659069 -36 61 C-37.485 60.505 -37.485 60.505 -39 60 C-39.50867288 58.3722468 -40.00209716 56.73787435 -40.41015625 55.08203125 C-41.27202602 52.03980221 -42.61086701 49.26387943 -43.92578125 46.39453125 C-45.03971794 43.9114651 -46.06042541 41.40514235 -47.0625 38.875 C-50.0115093 31.17686494 -50.0115093 31.17686494 -54 24 C-54.25760279 21.30547479 -54.08900053 18.71451625 -54 16 C-49.81910808 15.95038649 -45.63837434 15.91417984 -41.45727539 15.89013672 C-40.03634657 15.88010854 -38.61543822 15.86648259 -37.19458008 15.84912109 C-35.14659556 15.82473179 -33.09888502 15.8134851 -31.05078125 15.8046875 C-29.82012939 15.79421387 -28.58947754 15.78374023 -27.3215332 15.77294922 C-24.06309325 15.99568712 -21.85886421 16.43892933 -19 18 C-18.3125 20.5625 -18.3125 20.5625 -18 23 C-17.34 23.33 -16.68 23.66 -16 24 C-14.95081996 25.63615373 -13.95757636 27.30860256 -13 29 C-9.17606954 35.59262327 -5.55684342 41.75699571 0.125 46.9375 C2.59235556 49.65159111 3.5926189 52.63452346 5 56 C5.97850195 57.02104551 6.97980427 58.0206121 8 59 C8.66303179 60.19898248 9.30710763 61.40853973 9.9375 62.625 C11.61685493 66.04306241 11.61685493 66.04306241 14.125 67.0625 C16.25004925 67.20538884 16.25004925 67.20538884 18 65 C18.268125 64.2575 18.53625 63.515 18.8125 62.75 C20.05228969 59.87890809 21.70568175 58.01674968 23.7578125 55.69140625 C25.9284771 52.73575288 26.86468558 49.46569666 28 46 C28.66 46 29.32 46 30 46 C29.54625 45.0925 29.0925 44.185 28.625 43.25 C26.8125 39.625 26.8125 39.625 25 36 C24.34 36 23.68 36 23 36 C22.401875 34.906875 21.80375 33.81375 21.1875 32.6875 C19.69027365 30.05280486 18.19537881 28.09558886 16 26 C15.71125 25.401875 15.4225 24.80375 15.125 24.1875 C13.53005668 21.08622132 11.23349296 18.66929646 9 16 C7.97388051 14.34928604 6.97691857 12.68029994 6 11 C4.41437615 8.65425749 2.81623688 6.31790984 1.20703125 3.98828125 C0 2 0 2 0 0 Z " fill="#1CAD74" transform="translate(162,82)"/>
<path d="M0 0 C1.703125 0.10546875 1.703125 0.10546875 4 1 C5.7408895 3.0754482 7.24558129 5.076885 8.75 7.3125 C9.18755615 7.94406006 9.6251123 8.57562012 10.07592773 9.22631836 C11.3974299 11.14209984 12.70169608 13.06843863 14 15 C15.04607422 16.55460937 15.04607422 16.55460937 16.11328125 18.140625 C17.42538939 20.10747247 18.7325968 22.07759713 20.03515625 24.05078125 C21.98574224 26.97859919 23.98484585 29.86631061 26 32.75 C31.11329949 40.10535283 36.07539922 47.56028025 41.02709961 55.02514648 C44.08286475 59.63180393 47.14376295 64.2312047 50.2890625 68.77734375 C50.76480713 69.47037598 51.24055176 70.1634082 51.73071289 70.87744141 C52.59389956 72.13163344 53.46503076 73.38040924 54.34545898 74.62255859 C55.47265625 76.26953125 55.47265625 76.26953125 57 79 C56.505 80.485 56.505 80.485 56 82 C48.22342391 83.03631512 40.52799369 83.25146865 32.6875 83.3125 C31.42615234 83.34150391 30.16480469 83.37050781 28.86523438 83.40039062 C27.65544922 83.40876953 26.44566406 83.41714844 25.19921875 83.42578125 C23.55699341 83.44765503 23.55699341 83.44765503 21.8815918 83.4699707 C17.44337838 82.74612415 15.87151216 80.17134432 13.296875 76.7109375 C12.78640625 75.94007813 12.2759375 75.16921875 11.75 74.375 C10.96882813 73.21097656 10.96882813 73.21097656 10.171875 72.0234375 C9 70 9 70 9 68 C9.99 68 10.98 68 12 68 C13.24609375 69.4609375 13.24609375 69.4609375 14.4375 71.375 C16.32097195 74.20020793 17.66942048 75.88980683 21 77 C21 77.66 21 78.32 21 79 C23.64 79 26.28 79 29 79 C29.33 78.34 29.66 77.68 30 77 C31.12019531 77.05800781 32.24039063 77.11601562 33.39453125 77.17578125 C34.86714588 77.22267981 36.33980551 77.26817987 37.8125 77.3125 C38.55048828 77.35439453 39.28847656 77.39628906 40.04882812 77.43945312 C42.48739846 77.54863607 42.48739846 77.54863607 46 77 C48.0904983 74.63189955 48.0904983 74.63189955 49 72 C48.18595703 71.00419922 48.18595703 71.00419922 47.35546875 69.98828125 C46.64003906 69.10527344 45.92460937 68.22226563 45.1875 67.3125 C44.47980469 66.44238281 43.77210938 65.57226562 43.04296875 64.67578125 C40.57041107 61.43734528 38.584979 58.06359818 36.625 54.5 C35.02237329 51.82402713 35.02237329 51.82402713 32.3125 49.4375 C30 47 30 47 30 43 C29.14148438 42.7215625 29.14148438 42.7215625 28.265625 42.4375 C24.98447297 40.35566561 23.55498334 37.32919149 21.75 34 C21.38648438 33.35804688 21.02296875 32.71609375 20.6484375 32.0546875 C18 27.29546523 18 27.29546523 18 25 C17.01 24.67 16.02 24.34 15 24 C14.29848848 22.6846659 13.63474075 21.34882408 13 20 C12.54625 19.54625 12.0925 19.0925 11.625 18.625 C8.55382752 15.55382752 6.3690465 12.1071395 5 8 C4.01 8 3.02 8 2 8 C1.34 8.66 0.68 9.32 0 10 C-0.78375 10.70125 -1.5675 11.4025 -2.375 12.125 C-6.0207099 16.11792037 -9 20.4720596 -9 26 C-10.5 27.6875 -10.5 27.6875 -12 29 C-10.11306249 34.37777191 -8.12330426 39.21744035 -5 44 C-4.01 44.33 -3.02 44.66 -2 45 C-0.90234375 46.59375 -0.90234375 46.59375 0.0625 48.5 C1.42445528 51.33019068 1.42445528 51.33019068 4 53 C7 59.23076923 7 59.23076923 7 63 C3.08260072 61.50191764 1.64440134 59.37362977 -0.5625 55.875 C-2.94403572 52.14991865 -5.34466768 48.48185434 -7.9296875 44.89453125 C-8.42782959 44.19666504 -8.92597168 43.49879883 -9.43920898 42.77978516 C-10.41875807 41.41189602 -11.40752104 40.05054611 -12.40649414 38.69677734 C-15.36363528 34.52254749 -16.98761368 31.2827658 -17 26 C-15.91796875 23.4375 -15.91796875 23.4375 -14.1875 21 C-13.55070313 20.07574219 -12.91390625 19.15148437 -12.2578125 18.19921875 C-11.51273438 17.14347656 -10.76765625 16.08773437 -10 15 C-8.63384128 12.96494 -7.28108979 10.92135202 -5.92895508 8.87695312 C-3.96493292 5.90969006 -1.98210307 2.955208 0 0 Z " fill="#1BAE74" transform="translate(225,172)"/>
<path d="M0 0 C1.88671875 0.25390625 1.88671875 0.25390625 4 1 C5.08203125 2.77734375 5.08203125 2.77734375 5.8125 4.9375 C6.06644531 5.64777344 6.32039063 6.35804688 6.58203125 7.08984375 C7 9 7 9 6 11 C6.66 11 7.32 11 8 11 C8.18175781 11.99902344 8.36351563 12.99804688 8.55078125 14.02734375 C8.92783203 15.96287109 8.92783203 15.96287109 9.3125 17.9375 C9.67794922 19.86916016 9.67794922 19.86916016 10.05078125 21.83984375 C10.36402344 22.88269531 10.67726563 23.92554688 11 25 C11.99 25.33 12.98 25.66 14 26 C14.93554688 27.87011719 14.93554688 27.87011719 15.71875 30.296875 C16.01136719 31.1734375 16.30398437 32.05 16.60546875 32.953125 C16.90066406 33.87609375 17.19585937 34.7990625 17.5 35.75 C19.27327493 41.20146529 20.9285789 46.12597848 24 51 C24.53305232 52.67126065 25.01389876 54.36020187 25.4375 56.0625 C26.51287828 59.97055002 26.51287828 59.97055002 29.0625 63.0625 C31.73153273 65.73153273 31.91359822 68.32638907 32.5078125 71.9765625 C32.86599954 74.21263083 32.86599954 74.21263083 35 76 C35 77.32 35 78.64 35 80 C42.41017023 80.11459026 49.64206267 79.91160286 57 79 C57.144375 78.38125 57.28875 77.7625 57.4375 77.125 C58 75 58 75 59 73 C59.66 73 60.32 73 61 73 C61.07476562 72.30777344 61.14953125 71.61554688 61.2265625 70.90234375 C62.20678762 67.22402422 64.14682502 64.57688229 66.375 61.5625 C69.31820512 57.53220783 71.87930271 53.53555581 74 49 C74.99 49 75.98 49 77 49 C77.185625 47.8553125 77.185625 47.8553125 77.375 46.6875 C78 44 78 44 80 41 C80.66 41 81.32 41 82 41 C81.67 40.01 81.34 39.02 81 38 C81.99 37.01 81.99 37.01 83 36 C83.99 36 84.98 36 86 36 C86.103125 35.319375 86.20625 34.63875 86.3125 33.9375 C87.14725019 30.37084011 88.49472754 27.33777806 90 24 C90.66 24 91.32 24 92 24 C92.2475 23.46375 92.495 22.9275 92.75 22.375 C94 20 94 20 96.0625 17 C98.067134 14.28706635 98.067134 14.28706635 98.4375 11.9375 C99.3313522 8.85867577 101.74007783 7.2061145 104 5 C104.556875 4.071875 105.11375 3.14375 105.6875 2.1875 C106.120625 1.465625 106.55375 0.74375 107 0 C107.66 0 108.32 0 109 0 C108.53298164 5.0204474 107.15177872 7.16570582 104 11 C102.55348824 13.1534536 101.13806069 15.30995551 99.75 17.5 C99.36086426 18.10948486 98.97172852 18.71896973 98.57080078 19.34692383 C95.28886185 24.50416134 92.0866898 29.70864565 88.89453125 34.921875 C82.28206433 45.6654295 75.36879676 56.22669209 68.53125 66.828125 C68.12825684 67.45356201 67.72526367 68.07899902 67.31005859 68.72338867 C66.54281731 69.91408266 65.77495397 71.10437615 65.00634766 72.29418945 C63.41217457 74.76908265 61.882114 77.22107453 60.49609375 79.8203125 C59 82 59 82 57.08984375 82.92578125 C51.33157663 83.96038823 45.84344068 84.26121341 40 84 C38.72125 84 37.4425 84 36.125 84 C33 83 33 83 31.15625 79.78125 C28.35379902 73.77923421 25.88109771 67.62994274 23.375 61.5 C22.84515596 60.21046893 22.31495877 58.92108291 21.78442383 57.63183594 C20.97522785 55.66538 20.16621375 53.69885225 19.35829163 51.73187256 C16.82361615 45.56193946 14.25750139 39.40529344 11.6875 33.25 C10.8814993 31.31120254 10.07550939 29.37240059 9.26953125 27.43359375 C7.80590123 23.91777422 6.32388405 20.41074671 4.82421875 16.91015625 C4.49268799 16.12801758 4.16115723 15.34587891 3.81958008 14.54003906 C3.21339245 13.11050795 2.60051655 11.68378403 1.97924805 10.26074219 C0.48054973 6.70413659 -0.34028911 3.86893928 0 0 Z " fill="#19AF72" transform="translate(105,171)"/>
<path d="M0 0 C11.90885198 -0.11583618 23.81756999 -0.2046864 35.72687054 -0.25906086 C41.25683677 -0.28515764 46.78641766 -0.32055782 52.31616211 -0.37719727 C57.65243633 -0.43151317 62.98833984 -0.46141992 68.32486916 -0.47438622 C70.36108041 -0.48362678 72.39727132 -0.50167157 74.43332481 -0.52865028 C77.28501646 -0.56493475 80.1351753 -0.56994557 82.98706055 -0.56762695 C83.82935211 -0.58560333 84.67164368 -0.60357971 85.53945923 -0.62210083 C89.82382595 -0.58439436 91.48018254 -0.41290162 94.94612122 2.34016418 C97.11098881 5.14373391 98.70821728 7.69877749 100 11 C99.67 11.99 99.34 12.98 99 14 C94.33312778 10.8068769 93.94144304 9.82432911 92 4 C49.43 4.495 49.43 4.495 6 5 C6 7.97 6 10.94 6 14 C6.66 14 7.32 14 8 14 C10.88549626 20.58341381 12.85210257 26.90116066 14 34 C14.66 34 15.32 34 16 34 C16.33 35.65 16.66 37.3 17 39 C16.34 39 15.68 39 15 39 C15 38.01 15 37.02 15 36 C14.01 35.67 13.02 35.34 12 35 C10.7890625 32.4453125 10.7890625 32.4453125 9.625 29.125 C7.67638377 23.76777712 5.52884608 18.59909781 3.11328125 13.4375 C2.74589844 12.633125 2.37851563 11.82875 2 11 C1.43345703 9.7934375 1.43345703 9.7934375 0.85546875 8.5625 C-0.13698993 5.58965575 -0.05865625 3.11547741 0 0 Z " fill="#25AA77" transform="translate(62,67)"/>
<path d="M0 0 C0.66 0 1.32 0 2 0 C2 1.65 2 3.3 2 5 C2.99 5.33 3.98 5.66 5 6 C5.9140625 8.36328125 5.9140625 8.36328125 6.625 11.3125 C6.86476563 12.27800781 7.10453125 13.24351563 7.3515625 14.23828125 C7.56554687 15.14964844 7.77953125 16.06101562 8 17 C8.33177183 18.33372274 8.6644325 19.6672272 9 21 C9.66 21 10.32 21 11 21 C13.49505962 23.49505962 13.35948376 24.67328888 13.625 28.125 C13.69976562 29.03507812 13.77453125 29.94515625 13.8515625 30.8828125 C13.90054688 31.58148438 13.94953125 32.28015625 14 33 C14.66 33 15.32 33 16 33 C16.268125 33.680625 16.53625 34.36125 16.8125 35.0625 C17.66243684 37.16497533 18.56452644 39.24666255 19.5 41.3125 C20.83887751 44.6039072 21.67986402 47.64514584 22.45703125 51.0859375 C23.00889461 53.28522636 23.00889461 53.28522636 24.6875 56.1875 C26.1764207 59.37804436 26.06464903 60.70926664 25 64 C17.2052063 52.30780945 12.86376702 37.38366021 7.61987305 24.3605957 C7.21159019 23.34868416 7.21159019 23.34868416 6.7950592 22.31632996 C6.26284224 20.99701611 5.73183984 19.67721156 5.20213318 18.35688782 C3.47999396 14.09182565 1.62070837 9.92189906 -0.44458008 5.81225586 C-1.13877535 3.54719584 -0.74816936 2.21265805 0 0 Z " fill="#18AE70" transform="translate(79,107)"/>
<path d="M0 0 C0.66 0 1.32 0 2 0 C2 0.99 2 1.98 2 3 C31.7 3 61.4 3 92 3 C92 3.33 92 3.66 92 4 C49.43 4.495 49.43 4.495 6 5 C6 7.97 6 10.94 6 14 C6.66 14 7.32 14 8 14 C10.88549626 20.58341381 12.85210257 26.90116066 14 34 C14.66 34 15.32 34 16 34 C16.33 35.65 16.66 37.3 17 39 C16.34 39 15.68 39 15 39 C15 38.01 15 37.02 15 36 C14.01 35.67 13.02 35.34 12 35 C10.7890625 32.4453125 10.7890625 32.4453125 9.625 29.125 C7.67638377 23.76777712 5.52884608 18.59909781 3.11328125 13.4375 C0.93557685 8.66947353 -0.24710355 5.31272633 0 0 Z " fill="#17AD73" transform="translate(62,67)"/>
<path d="M0 0 C2 1 2 1 3 3 C2.00292969 4.99267578 2.00292969 4.99267578 0.421875 7.4453125 C-0.15723633 8.35071777 -0.73634766 9.25612305 -1.33300781 10.18896484 C-2.28191895 11.64230225 -2.28191895 11.64230225 -3.25 13.125 C-3.88518555 14.10807129 -4.52037109 15.09114258 -5.17480469 16.10400391 C-7.1043392 19.07753543 -9.04857027 22.04079907 -11 25 C-11.56589844 25.85916016 -12.13179687 26.71832031 -12.71484375 27.60351562 C-14.21513961 29.86863223 -15.72806025 32.12438341 -17.25 34.375 C-17.7027832 35.05191895 -18.15556641 35.72883789 -18.62207031 36.42626953 C-19.69502286 37.9886173 -20.84026872 39.50093994 -22 41 C-22.66 41 -23.32 41 -24 41 C-23.25 36.25 -23.25 36.25 -21 34 C-20.71125 33.071875 -20.4225 32.14375 -20.125 31.1875 C-18.91936623 27.77153764 -17.34593778 25.72431484 -15 23 C-14.67 22.34 -14.34 21.68 -14 21 C-13.34 21 -12.68 21 -12 21 C-11.87625 20.195625 -11.87625 20.195625 -11.75 19.375 C-10.72706194 16.13569613 -8.99966302 13.72681321 -7 11 C-6.34 10.67 -5.68 10.34 -5 10 C-3.94773272 8.02699884 -2.95211112 6.02323613 -2 4 C-1.33333333 2.66666667 -0.66666667 1.33333333 0 0 Z " fill="#1DAF73" transform="translate(239,129)"/>
<path d="M0 0 C0.99 0.495 0.99 0.495 2 1 C2 1.66 2 2.32 2 3 C3.32 3.66 4.64 4.32 6 5 C6 6.32 6 7.64 6 9 C6.99966797 8.98259766 6.99966797 8.98259766 8.01953125 8.96484375 C14.74230945 8.89902634 21.317439 9.27616361 28 10 C28 10.66 28 11.32 28 12 C22.28574592 12.99378332 16.79312048 13.16764657 11 13 C9.72125 13 8.4425 13 7.125 13 C3.55137024 11.85643848 3.25096152 11.3585131 1.5625 8.1875 C0.16203584 5.06428913 0 3.58719215 0 0 Z " fill="#26AC77" transform="translate(134,242)"/>
<path d="M0 0 C2.25 0.125 2.25 0.125 5 1 C7.3125 4.0625 7.3125 4.0625 9 7 C8.67 7.66 8.34 8.32 8 9 C6.5 7.625 6.5 7.625 5 6 C5 5.34 5 4.68 5 4 C4.01 4 3.02 4 2 4 C1.34 4.66 0.68 5.32 0 6 C-0.78375 6.70125 -1.5675 7.4025 -2.375 8.125 C-6.0207099 12.11792037 -9 16.4720596 -9 22 C-9.97850195 23.02104551 -10.97980427 24.0206121 -12 25 C-12.33 25.99 -12.66 26.98 -13 28 C-14.0625 25.625 -14.0625 25.625 -15 23 C-14.67 22.34 -14.34 21.68 -14 21 C-13.34 21 -12.68 21 -12 21 C-11.690625 20.21625 -11.38125 19.4325 -11.0625 18.625 C-10 16 -10 16 -9 14 C-9.66 14 -10.32 14 -11 14 C-10.67 13.34 -10.34 12.68 -10 12 C-9.34 12 -8.68 12 -8 12 C-7.3503125 10.576875 -7.3503125 10.576875 -6.6875 9.125 C-5 6 -5 6 -2 4 C-0.80767387 1.94996045 -0.80767387 1.94996045 0 0 Z " fill="#13AC6F" transform="translate(225,176)"/>
<path d="M0 0 C-0.39390835 6.18194937 -2.42182004 9.91298684 -5.9375 14.9375 C-6.39318359 15.62134766 -6.84886719 16.30519531 -7.31835938 17.00976562 C-8.48342713 18.71728074 -9.73528536 20.36491968 -11 22 C-11.66 22 -12.32 22 -13 22 C-13.25 19.75 -13.25 19.75 -13 17 C-11.70896357 15.6256709 -10.3743291 14.29103643 -9 13 C-8.2127322 10.8618034 -8.2127322 10.8618034 -8 9 C-7.34 9 -6.68 9 -6 9 C-5.89042969 8.43410156 -5.78085938 7.86820312 -5.66796875 7.28515625 C-5.50941406 6.55167969 -5.35085937 5.81820312 -5.1875 5.0625 C-5.03667969 4.33160156 -4.88585937 3.60070312 -4.73046875 2.84765625 C-4.48941406 2.23792969 -4.24835938 1.62820312 -4 1 C-1 0 -1 0 0 0 Z " fill="#1FAE77" transform="translate(255,107)"/>
<path d="M0 0 C4.02273792 2.41705909 5.038837 4.95271182 6.5625 9.3125 C7.78343973 12.75915281 8.99283416 15.98612038 10.671875 19.23828125 C12.192733 22.40077128 12.06083528 23.7210546 11 27 C8.69828006 23.54742009 7.13398439 19.9193989 5.5 16.125 C5.03787109 15.06345703 5.03787109 15.06345703 4.56640625 13.98046875 C3.70289614 11.99031884 2.85012361 9.99589664 2 8 C1.5978125 7.06929687 1.195625 6.13859375 0.78125 5.1796875 C0 3 0 3 0 0 Z " fill="#20A978" transform="translate(93,144)"/>
<path d="M0 0 C1.875 0.3125 1.875 0.3125 4 1 C4.66 1.99 5.32 2.98 6 4 C5.67 4.99 5.34 5.98 5 7 C5 6.34 5 5.68 5 5 C2.62694422 4.58219121 2.62694422 4.58219121 0 5 C-1.71711243 7.44496043 -1.71711243 7.44496043 -3 10 C-3.66 10 -4.32 10 -5 10 C-5.12375 10.598125 -5.2475 11.19625 -5.375 11.8125 C-6 14 -6 14 -8 17 C-8.66 17 -9.32 17 -10 17 C-8.51364884 12.78345644 -6.38750841 9.37521395 -3.875 5.6875 C-3.15054688 4.61886719 -2.42609375 3.55023438 -1.6796875 2.44921875 C-0.84824219 1.23685547 -0.84824219 1.23685547 0 0 Z " fill="#29B17A" transform="translate(225,172)"/>
<path d="M0 0 C0.87462891 0.05220703 1.74925781 0.10441406 2.65039062 0.15820312 C4.78814632 0.2867021 6.92538669 0.42372641 9.0625 0.5625 C5.14170542 4.48329458 -0.82720746 3.6777084 -6.08203125 3.6953125 C-7.9375 3.5625 -7.9375 3.5625 -8.9375 2.5625 C-10.28497084 2.33174918 -11.64127565 2.15096937 -13 2 C-14.299375 1.855625 -15.59875 1.71125 -16.9375 1.5625 C-16.9375 1.2325 -16.9375 0.9025 -16.9375 0.5625 C-11.1748997 -0.49306451 -5.8315924 -0.38581638 0 0 Z " fill="#2CAD7D" transform="translate(270.9375,251.4375)"/>
<path d="M0 0 C0.99 0 1.98 0 3 0 C1.125 4.75 1.125 4.75 0 7 C-0.66 7 -1.32 7 -2 7 C-1.46274105 10.37705625 -0.88935377 13.696686 0 17 C-1.9375 16.4375 -1.9375 16.4375 -4 15 C-5.18445857 11.51629833 -5.51261421 9.19888957 -4.04296875 5.76171875 C-2.80497521 3.65600768 -1.67971227 1.77661875 0 0 Z " fill="#24A777" transform="translate(213,190)"/>
<path d="M0 0 C3.875 3.75 3.875 3.75 5 6 C5.99 6.33 6.98 6.66 8 7 C10.07530387 9.92079805 11 11.37546731 11 15 C6.95007711 13.49471893 5.4746607 11.11269686 3.25 7.5 C2.63640625 6.5203125 2.0228125 5.540625 1.390625 4.53125 C0 2 0 2 0 0 Z " fill="#21B27B" transform="translate(221,220)"/>
<path d="M0 0 C3 1 3 1 4.16796875 2.890625 C7.55201294 10.72189969 7.55201294 10.72189969 7 15 C6.34 14.67 5.68 14.34 5 14 C4.375 10.9375 4.375 10.9375 4 8 C3.34 8 2.68 8 2 8 C0.23537317 4.91190305 0 3.76687864 0 0 Z " fill="#23AD78" transform="translate(141,179)"/>
<path d="M0 0 C3.86995825 1.28998608 4.8494623 3.05277704 7.25 6.3125 C8.34054688 7.76076172 8.34054688 7.76076172 9.453125 9.23828125 C11 12 11 12 10.734375 14.35546875 C10.37085938 15.16951172 10.37085938 15.16951172 10 16 C5.85064594 11.58207933 3.11865648 7.68692002 1 2 C0.67 1.34 0.34 0.68 0 0 Z " fill="#20B37F" transform="translate(183,111)"/>
<path d="M0 0 C2.31 0.66 4.62 1.32 7 2 C7 4.97 7 7.94 7 11 C6.4225 10.236875 5.845 9.47375 5.25 8.6875 C3.28296907 6.33799083 1.51523256 4.70676495 -1 3 C-0.67 2.01 -0.34 1.02 0 0 Z " fill="#18BD6D" transform="translate(136,98)"/>
<path d="M0 0 C0 0.66 0 1.32 0 2 C-2.83384108 2.82514784 -5.16935251 3.07936233 -8.109375 2.87890625 C-8.86347656 2.83056641 -9.61757813 2.78222656 -10.39453125 2.73242188 C-11.17183594 2.67634766 -11.94914062 2.62027344 -12.75 2.5625 C-13.54277344 2.51029297 -14.33554687 2.45808594 -15.15234375 2.40429688 C-17.10193997 2.27510676 -19.05102886 2.13830035 -21 2 C-21 1.67 -21 1.34 -21 1 C-13.97360585 0.25194283 -7.06608191 -0.13794954 0 0 Z " fill="#2FAD7C" transform="translate(271,67)"/>
<path d="M0 0 C1.97986082 0.11347619 3.95891598 0.2410935 5.9375 0.375 C7.03964844 0.44460937 8.14179688 0.51421875 9.27734375 0.5859375 C10.17582031 0.72257813 11.07429688 0.85921875 12 1 C12.33 1.66 12.66 2.32 13 3 C6.73 3 0.46 3 -6 3 C-6 2.34 -6 1.68 -6 1 C-4.02 1 -2.04 1 0 1 C0 0.67 0 0.34 0 0 Z " fill="#17B264" transform="translate(250,252)"/>
<path d="M0 0 C1.35015859 4.05047576 0.62084998 6.7920168 0 11 C-0.99 10.67 -1.98 10.34 -3 10 C-3 5.66905042 -2.03435531 3.72965139 0 0 Z " fill="#15B86B" transform="translate(223,99)"/>
<path d="M0 0 C0.93065133 2.60582371 1.14917407 3.64198224 0.0625 6.25 C-0.4634375 7.11625 -0.4634375 7.11625 -1 8 C-1.66 8 -2.32 8 -3 8 C-4.0625 6.1875 -4.0625 6.1875 -5 4 C-4.67 3.01 -4.34 2.02 -4 1 C-3.67 1.66 -3.34 2.32 -3 3 C-2.34 3 -1.68 3 -1 3 C-0.67 2.01 -0.34 1.02 0 0 Z " fill="#11B071" transform="translate(79,93)"/>
<path d="M0 0 C1.32 0.66 2.64 1.32 4 2 C2.35 4.64 0.7 7.28 -1 10 C-1.66 8.68 -2.32 7.36 -3 6 C-2.01 5.67 -1.02 5.34 0 5 C0 3.35 0 1.7 0 0 Z " fill="#1CBC67" transform="translate(277,70)"/>
<path d="M0 0 C0.33 0.66 0.66 1.32 1 2 C1.66 2 2.32 2 3 2 C3.33 1.34 3.66 0.68 4 0 C4.66 2.31 5.32 4.62 6 7 C4.68 7.33 3.36 7.66 2 8 C0.74335022 5.09399739 0 3.20395416 0 0 Z " fill="#17B86B" transform="translate(127,148)"/>
<path d="M0 0 C0.66 0 1.32 0 2 0 C2.99 2.31 3.98 4.62 5 7 C4.01 7.33 3.02 7.66 2 8 C0.74335022 5.09399739 0 3.20395416 0 0 Z " fill="#25AE7A" transform="translate(84,122)"/>
<path d="M0 0 C0.66 0 1.32 0 2 0 C2.75 2.1875 2.75 2.1875 3 5 C1.0625 7.8125 1.0625 7.8125 -1 10 C-1 7.69 -1 5.38 -1 3 C-0.34 3 0.32 3 1 3 C0.67 2.01 0.34 1.02 0 0 Z " fill="#1CB96B" transform="translate(186,209)"/>
<path d="M0 0 C0.66 0 1.32 0 2 0 C1.67 1.98 1.34 3.96 1 6 C0.01 6 -0.98 6 -2 6 C-1.125 1.125 -1.125 1.125 0 0 Z " fill="#19AE6D" transform="translate(212,171)"/>
<path d="M0 0 C1.32 1.32 2.64 2.64 4 4 C3.67 4.99 3.34 5.98 3 7 C2.01 6.67 1.02 6.34 0 6 C0 4.02 0 2.04 0 0 Z " fill="#22A876" transform="translate(150,199)"/>
<path d="M0 0 C1.74627478 2.61941217 2.38722388 4.03824877 3 7 C2.34 7 1.68 7 1 7 C0.67 7.99 0.34 8.98 0 10 C-1.125 3.375 -1.125 3.375 0 0 Z " fill="#13B36D" transform="translate(140,172)"/>
<path d="M0 0 C0.66 0 1.32 0 2 0 C5 4.38461538 5 4.38461538 5 7 C3.0625 6.3125 3.0625 6.3125 1 5 C0.25 2.375 0.25 2.375 0 0 Z " fill="#25B672" transform="translate(176,100)"/>
<path d="M0 0 C0.66 0 1.32 0 2 0 C2 0.99 2 1.98 2 3 C2.66 3 3.32 3 4 3 C4 3.99 4 4.98 4 6 C2.68 6 1.36 6 0 6 C0 4.02 0 2.04 0 0 Z " fill="#1EB66A" transform="translate(62,67)"/>
<path d="M0 0 C0.66 0 1.32 0 2 0 C3.6875 2.3125 3.6875 2.3125 5 5 C4.67 5.99 4.34 6.98 4 8 C3.34 7.67 2.68 7.34 2 7 C1.26924352 4.6859378 0.59861742 2.35171131 0 0 Z " fill="#22AF77" transform="translate(273,240)"/>
<path d="M0 0 C3.39914975 1.13304992 4.05254451 2.12518475 6 5 C5.67 5.66 5.34 6.32 5 7 C4.01 6.67 3.02 6.34 2 6 C0.8125 2.9375 0.8125 2.9375 0 0 Z " fill="#1CBD6C" transform="translate(242,195)"/>
<path d="M0 0 C0.66 0 1.32 0 2 0 C2.66 2.31 3.32 4.62 4 7 C3.01 7 2.02 7 1 7 C0.67 4.69 0.34 2.38 0 0 Z " fill="#22A672" transform="translate(105,171)"/>
<path d="M0 0 C4.875 1.75 4.875 1.75 6 4 C4.1875 4.625 4.1875 4.625 2 5 C1.01 4.34 0.02 3.68 -1 3 C-0.67 2.01 -0.34 1.02 0 0 Z " fill="#11B16B" transform="translate(136,98)"/>
</svg>
